<svg xmlns="http://www.w3.org/2000/svg" viewBox="0 0 480.07 480.07">
  <defs>
    <style>
      .cls-1 {
        fill: #fff;
        stroke: #58595b;
      }
    </style>
  </defs>
  <g id="Layer_2" data-name="Layer 2">
    <g id="Слой_1" data-name="Слой 1">
      <circle cx="240.03" cy="240.03" r="240.03"/>
      <g>
        <path class="cls-1" d="M303.07,365.43c-20.73-12.21-37.85-18.8-57.5-27.66,3.26,1.47,27.83,17.55,49.66,35.33-16.16-7.33-63.41-28.83-79.41-35.67-1.44-.61,2.43-6.14,5.58-9.83a55.68,55.68,0,0,1,8.5-8.33,54.83,54.83,0,0,1,10-6.23,98.09,98.09,0,0,1,20.94-9.57c4.23-.82,8.47-1.67,12.73-2.49l3.2-.6,1.6-.3c.29-.05.48-.1.85-.15l1.26-.15,10.32-1.16c14.09-1.53,29.45-3,45.92-4.36,1.43,14.26,2.78,29.9,4,46.71,0,0,6.81,2,8.58-.4l1.35-1.83.63-.86.16-.21.66-.71,1.42-1.52L365,323.35l15.64-16.17.19-12.61q.18-11.7.54-23.39l.41-11.7.06-1.47,0-.36v-.11l0-.19.12-.76.27-1.6c.42-2.52.85-5.05,1.27-7.57-1.9-.48-4.08-1-6.66-1.63l-2-.47-1.07-.24-.28-.06a1.89,1.89,0,0,0-.43-.06l-1.46-.12-11.69-1q-10.94-1-21.89-2.19c-2.83,4.35-3.51,15.07-6.15,22.41-3.9-3.53-4.67-4.34-4.67-4.34a27.29,27.29,0,0,1-4.07-5.65l-.58.44-2.34,1.76-4.67,3.51q-9.36,7-18.74,13.74Q278.07,287,259.22,299.57c-12.2,4.68-30.16,11.33-30.49,11.72-.45-.15-13.32-4.69-20.39-8a184.55,184.55,0,0,1,31.23-41.85c9.23-9.26,27.39-29.46,35.5-35-4.12,5.44-17.33,24.38-21.5,30.84q-4.71,7.29-8.6,14.19l8.76-8.19c8.21-7.65,25.4-28.23,33.59-35.75-3,4.75-15.12,23.11-18.09,29.08-2.11,4.25-3.93,8.36-5.5,12.25Q276.36,260.67,289,252q7.59-5.19,15.16-10.56l3.78-2.68,1.92-1.25c16.13-9.63,43.49-22.59,78.63-23.5a152.17,152.17,0,0,1,26.79,1.67c-.54,10.4-1,20.34-1.42,30q-.51,12.79-1,25.54-.4,11.7-.61,23.38l-.15,12L412,320.18l-6.8,6.84-6.44,6.56q-5.8,5.94-11.54,12t-11.39,12.12L362.57,372c-18.56,20.1-38.47,42.33-62.16,69.1-1.81-22.44.23-40.32-1.6-63.05,3-5.07,25.36-23.69,26.26-24.58-1.59-11.5-8.95-28.57-10.75-36.81a179.06,179.06,0,0,0-21.11,4.85c-6.15,1.73-25.5,9-31.14,10.8Z"/>
        <path class="cls-1" d="M304.15,95.46l-.24.91-1.07-.91a125.3,125.3,0,0,0-4.34,24.05c1.9,1.71,3.94,3.52,6.08,5.41,3.07,5.91,5.73,11,8.49,16.09,1.9,3.47,16.33,34.31,15.75,37-9.64-1.76-44.25-8.82-48.63-9.15-6.06,5.77-10.78,10.28-15.29,14.63l-3.64-.25q-16.71-1.11-33.4-2.07c-17.62-.65-35.94-1.24-54.71-1.79q-.54,19.2-1.08,38.35l-.25,9.82-.12,4.95-.06,2.1-.06,1.47-.45,11.76q-.87,23.52-1.45,47l-.27,11.73,0,1.47a2.45,2.45,0,0,1,0,.36v.17l-.06.71-.12,1.39c-.14,1.82-.26,3.55-.36,5.23-.19,3.37-.29,6.56-.29,10-3.44-3.44-6.68-6.41-10.56-9.74l-1.49-1.27-.76-.65-.2-.16-.25-.24-.38-.36-1.5-1.44-12.07-11.5-12.13-11.46-1.52-1.43-.38-.36-.19-.17L127,287l-.23-.18-.93-.74-1.94-1.54-.42-3.35-.06-.44a2.6,2.6,0,0,1,0-.28l0-.73-.11-2.93L123,271q-.51-11.7-1-23.4-1.09-23.42-2.49-46.89-.93-15.63-2-31.28a76.39,76.39,0,0,1,10.81-34.87c.73-.9,6.83-3.22,6.83-3.22L139,131l7.69-.77L162,128.63q30.56-3.24,60.42-7c21.05-5.89,49.64-15.16,49.22-15.18a125.57,125.57,0,0,0,13.88-20c-30-6.77-68.35-9.31-110.73-5.43-10.34.94-20.18,2.32-29.5,4,12.21-.23,28-.82,43.5.75,7.83.91,13.26,2.52,19.67,4.07-10.69-.18-27.31,2-46.17,3.68a287.77,287.77,0,0,0-34.51,5.29,314.77,314.77,0,0,1,36.48.24c11.84.62,25.15,1.44,31.36,2.88-15,2.07-33.6,3.95-48.93,5.8-16.18,1.86-29.34,2-40,5.25-1.55.48-15.73,12.52-23.9,26.35L84.4,159q.72,9.73,1.45,19.45,1.38,19.44,2.57,38.78t2.14,38.64q.45,9.64.91,19.28l.21,4.81.2,5.86.39,11.88L119,322.84l12.11,11.47,13.81,13.29c18.73,18.13,36.74,35.83,55,54.06,0-18.14.11-36,.32-54.11q.21-13.67.41-27.34l.26-13.58.3-11.73q.65-23.46,1.61-47l.5-11.77.13-2.71.14-2.14.27-4.21c.38-5.55.78-10.83,1.21-15.78,6.14.45,12,.94,17.44,1.45,4.06.51,14,1.06,22.05,1.63q25.08,1.71,50.3,3.8c1.67-1.5,23.09-23.6,23.37-24.5l1.55.2C337,196,358,198.24,383.53,200.69q-2.67-3.93-5.63-7.95c-4.06-5.52-8.14-10.62-12.17-15.31A74.44,74.44,0,0,1,382.07,187c10.06,7.48,15.37,16.23,16.16,15.58s-2.06-7.73-7.41-14.58c-8.53-10.94-16.24-18.89-23.3-24.1,3.56,2.38,3.24,1.62,16.05,9.1,14,8.75,28.82,31.59,29.66,30.75,1.21-1.2-11.08-30.25-36.41-51.25C348.75,125.21,321.27,107,304.15,95.46Z"/>
      </g>
    </g>
  </g>
</svg>
